<svg width="162" height="142" fill="none" xmlns="http://www.w3.org/2000/svg"><path opacity=".25" d="M80.6 141.3c44.5 0 80.6-2.3 80.6-5.2 0-2.9-36.1-5.2-80.6-5.2-44.5 0-80.6 2.3-80.6 5.2 0 2.9 36.1 5.2 80.6 5.2z" fill="#000"/><path d="M58.3 0c-8.5 0-17.1 3.5-23.1 9.5S25.7 24 25.7 32.6v22.1c0 7.3 1.3 22.1-4.1 27.2-5.4 5.4-7.6 8.2-7.6 14.9 0 6.6-3.2 10.4-8.9 17.7-3.9 4.9-1.8 11.6 0 15.4.8 1.8 2.7 3 4.7 3h98c2.2 0 4.1-1.3 4.8-3.4 1.4-3.8 2.7-10-1.2-14.7-5.4-7.3-8.5-11.1-8.5-17.7s-2.2-9.8-7.6-14.9c-5.4-5.4-4.1-19.9-4.1-27.2V32.9c0-8.5-3.5-17.1-9.8-23.1C75.1 3.8 67.1 0 58.3 0z" fill="#850F17"/><path d="M30.5 66.4c4.7 0 8.5-3.8 8.5-8.5s-3.8-8.5-8.5-8.5-8.5 3.8-8.5 8.5 3.7 8.5 8.5 8.5zm55.9 0c4.7 0 8.5-3.8 8.5-8.5s-3.8-8.5-8.5-8.5-8.5 3.8-8.5 8.5 3.8 8.5 8.5 8.5zM65.6 88.5H51V104h14.5l.1-15.5z" fill="#F4D2BA"/><path opacity=".1" d="M51 103.7L65.6 92v-3.5H51v15.2z" fill="#4D3231"/><path d="M70.6 103.7H46v5.4h24.7l-.1-5.4z" fill="#3797CC"/><path d="M26.2 109h65.6c5.4 0 10.4 2.4 14.2 6.6 3.8 4.2 6 9.7 6 15.6 0 2.1-1.6 3.8-3.5 3.8h-99c-1.9 0-3.5-1.7-3.5-3.8 0-5.9 2.2-11.4 6-15.6 3.8-4.2 8.8-6.6 14.2-6.6z" fill="#42B0F9"/><path d="M30.5 25.3h55.6v40.1c0 7.3-2.8 14.5-8.2 19.6-5.1 5.1-12.3 8.2-19.6 8.2-7.3 0-14.5-2.8-19.6-8.2-5.1-5.1-8.2-12.3-8.2-19.6V25.3z" fill="#F4D2BA"/><path d="M66.8 73c0 1.3 0 2.2-.6 3.5-.3.9-.9 2.2-1.9 2.8-.9.9-1.9 1.6-2.8 1.9-.9.3-2.2.6-3.5.6-1.3 0-2.2-.3-3.5-.6-.9-.3-1.9-1.3-2.8-1.9-.9-.9-1.6-1.9-1.9-2.8-.3-.9-.6-2.2-.6-3.5h17.6z" fill="#fff"/><path opacity=".1" d="M61.8 91c-7.3 0-14.5-2.8-19.6-8.2-5.1-5.1-8.2-12.3-8.2-19.6V25.3h-3.5v40.1c0 7.3 2.8 14.5 8.2 19.6 5.1 5.1 12.3 8.2 19.6 8.2 5.4 0 10.8-1.6 15.5-4.7-3.8 1.9-7.9 2.6-12 2.5z" fill="#4D3231"/><path d="M76.1 51h-7.5c-.4 0-.9-.2-1.1-.4-.2-.2-.4-.6-.4-1.1 0-.4.2-.9.4-1.1.2-.2.6-.4 1.1-.4h7.5c.4 0 .9.2 1.1.4.2.2.4.6.4 1.1 0 .4-.2.9-.4 1.1-.2.2-.6.4-1.1.4z" fill="#850F17"/><path fill-rule="evenodd" clip-rule="evenodd" d="M43.9 62.7c-.7 0-1.2-.5-1.2-1.2v-2.9c0-.7.5-1.2 1.2-1.2s1.2.5 1.2 1.2v2.9c0 .7-.5 1.2-1.2 1.2zm29.4 0c-.7 0-1.2-.5-1.2-1.2v-2.9c0-.7.5-1.2 1.2-1.2s1.2.5 1.2 1.2v2.9c0 .7-.5 1.2-1.2 1.2z" fill="#232526"/><path d="M44 70.5c5.799 0 10.5-4.701 10.5-10.5S49.799 49.5 44 49.5 33.5 54.201 33.5 60 38.201 70.5 44 70.5z" fill="#D9D9D9" fill-opacity=".25"/><path d="M44 72c-6.6 0-12-5.4-12-12s5.4-12 12-12 12 5.4 12 12-5.4 12-12 12zm0-21c-5 0-9 4-9 9s4 9 9 9 9-4 9-9-4-9-9-9z" fill="#4A5058"/><path d="M73 70.5c5.799 0 10.5-4.701 10.5-10.5S78.799 49.5 73 49.5 62.5 54.201 62.5 60 67.201 70.5 73 70.5z" fill="#D9D9D9" fill-opacity=".25"/><path d="M73 72c-6.6 0-12-5.4-12-12s5.4-12 12-12 12 5.4 12 12-5.4 12-12 12zm0-21c-5 0-9 4-9 9s4 9 9 9 9-4 9-9-4-9-9-9z" fill="#4A5058"/><path d="M61.1 60.3c-.3-.6-1.1-2.3-2.6-2.3s-2.3 1.7-2.6 2.3l-1.9-.6c.4-1.3 1.9-3.7 4.4-3.7 2.5 0 4 2.4 4.4 3.7l-1.7.6z" fill="#4A5058"/><path d="M60 138c28.7 0 52-1.6 52-3.5S88.7 131 60 131s-52 1.6-52 3.5 23.3 3.5 52 3.5z" fill="#42B0F9"/><path d="M61 106h-5v32h5v-32z" fill="#3797CC"/><path opacity=".5" d="M113.4 59.3c11.3 1.3 25.7-31.3 10-31.3-16.9 0-23.6 22-10 31.3z" fill="#fff"/><path d="M30.5 49.7h25.6c2.8 0 5.7-1.3 7.9-3.2 2.2-2.2 3.2-4.7 3.2-7.9v-2.7c0-.9.3-1.9.9-2.5.6-.6 1.6-1.3 2.5-1.3.9 0 1.9.3 2.5 1.3.6.6 1.3 1.6 1.3 2.5V38c0 2.8 1.3 5.7 3.2 7.6 1.9 1.9 4.7 3.2 7.6 3.2 2.8 0 5.1-2.3 5.1-5.1V25.5l-5.4-7.6H30.5L27 31.2v15.1c0 1.8 1.6 3.4 3.5 3.4z" fill="#850F17"/><path d="M158.3 114.2c-4.2-1.3-7.9-3.7-11-7.2-5.6-6.2-9.4-15.9-11.4-29-.1-.7-.2-1.2-.2-1.5l-.3-1.4 1.4-.1c1.8-.2 3.4-.4 4.9-.8.4-.1.9-.2 1.5-.4 1.4-.4 2.8-1 3.9-1.7.8-.5 1.9-1.6 1.9-3V69c0-1.8-1.7-3-2.4-3.5-1.6-.9-3.6-1.5-4.9-1.8-1.3-.3-2.8-.5-4.4-.7l1.2-1c4.9-4.3 7.7-10.2 7.7-16.5 0-12.2-9.9-22.1-22.1-22.1-12.2 0-22.1 9.9-22.1 22.1 0 6.3 2.7 12.2 7.7 16.5l1.2 1c-1.6.2-3 .4-4.4.7-1.4.3-3.3.8-4.9 1.8-.7.4-2.4 1.6-2.4 3.5 0 1.8 1.7 3 2.4 3.5 1.6.9 3.6 1.5 4.9 1.8l1.2.3c1.1.2 2.4.4 3.7.5l1.3.1h.3-.2l-.3 1.4c-.1.3-.1.8-.2 1.5-3 20.4-10.5 32.4-22.4 36.2l-1 .3.7 9.7.1 1.2 5 3.3-.5 6.7s-.5 2.2 29.2 2.2h.2c24.9 0 29.4-1.5 30.2-2.1.2-.1.2-.2.2-.2l-.5-6.7 5-4 .8-10.1-1-.4z" fill="#FFB439"/><path opacity=".5" d="M116.4 84.3c-4 19.6-8.3 24.1-14.7 29.4h17.8c6.6 0 1.5-25.2 1.5-25.2l-4.6-4.2zm-2.2-25.1c11.3 1.3 25.7-31.3 10-31.3-16.9.1-23.6 22.1-10 31.3z" fill="#fff"/><path d="M158.4 124.7l.8-10.1H136s-.8 9.7-8.4 9.7h-38l.1 1.2 5 3.3c.6 0 20.2.1 24.4.1 3.1 0 4 5.6 4.3 8.8h.2c24.9 0 30-1.6 30.4-2.2l-.6-6.7 5-4.1z" fill="#000" opacity=".15"/><path d="M146.6 72.4c.1-.1.3-.2.4-.3-1.1.7-2.4 1.3-3.9 1.7 1.2-.3 2.5-.7 3.5-1.4z" fill="#FFB439"/><path d="M158.3 114.2c-4.2-1.3-7.9-3.7-11-7.2-5.6-6.2-9.4-15.9-11.4-29-.1-.7-.2-1.2-.2-1.5l-.3-1.4 1.4-.1c1.8-.2 3.4-.4 4.9-.8.4-.1.9-.2 1.5-.4 1.4-.4 2.8-1 3.9-1.7.8-.5 1.9-1.6 1.9-3V69c0-1.8-1.7-3-2.4-3.5-1.6-.9-3.6-1.5-4.9-1.8-1.3-.3-2.8-.5-4.4-.7l1.2-1c4.9-4.3 7.7-10.2 7.7-16.5 0-12.2-9.9-22.1-22.1-22.1-12.2 0-22.1 9.9-22.1 22.1 0 6.3 2.7 12.2 7.7 16.5l1.2 1c-1.6.2-3 .4-4.4.7-1.4.3-3.3.8-4.9 1.8-.7.4-2.4 1.6-2.4 3.5 0 1.8 1.7 3 2.4 3.5 1.6.9 3.6 1.5 4.9 1.8l1.2.3c1.1.2 2.4.4 3.7.5l1.3.1h.3-.2l-.3 1.4c-.1.3-.1.8-.2 1.5-3 20.4-10.5 32.4-22.4 36.2l-1 .3.7 9.7.1 1.2 5 3.3-.5 6.7s-.5 2.2 29.2 2.2h.2c24.9 0 29.4-1.5 30.2-2.1.2-.1.2-.2.2-.2l-.5-6.7 5-4 .8-10.1-1-.4z" fill="#FFB439"/><path d="M135.9 78c-.1-.7-.2-1.2-.2-1.5l-.3-1.4 1.4-.1c1.8-.2 3.4-.4 4.9-.8 1.4-.3 3.3-.8 4.9-1.8.7-.4 2.3-1.6 2.4-3.3H99.1c.1 1.8 1.7 2.9 2.4 3.3 1.6.9 3.6 1.5 4.9 1.8 1.5.3 3.1.6 4.9.8l1.4.1 29.1 23.8c-2.7-5.6-4.6-12.5-5.9-20.9z" fill="#000" opacity=".15"/><path opacity=".5" d="M116.4 84.3c-4 19.6-8.3 24.1-14.7 29.4h17.8c6.6 0 1.5-25.2 1.5-25.2l-4.6-4.2zm-2.2-25.1c11.3 1.3 25.7-31.3 10-31.3-16.9.1-23.6 22.1-10 31.3z" fill="#fff"/><path d="M158.4 124.7l.8-10.1H136s-.8 9.7-8.4 9.7h-38l.1 1.2 5 3.3c.6 0 20.2.1 24.4.1 3.1 0 4 5.6 4.3 8.8h.2c24.9 0 30-1.6 30.4-2.2l-.6-6.7 5-4.1z" fill="#000" opacity=".15"/></svg>